PathFileType	4	(X/Y/Z)	C:/Users/beibeiliu/ov580/test_trc/User2\sequence.16_training_dense_right.trc
DataRate	CameraRate	NumFrames	NumMarkers	Units	OrigDataRate	OrigDataStartFrame	OrigNumFrames
120	120	18	19	mm	120	52	411
Frame#	Time	ThumbCMC			ThumbMCP			ThumbIP			ThumbTip			IndexMCP			IndexPIP			IndexTip			MiddleMCP			MiddlePIP			MiddleTip			RingMCP			RingPIP			RingTip			PinkyMCP			PinkyPIP			PinkyTip			BackHand1			BackHand2			BackHand3	
		X0	Y0	Z0	X1	Y1	Z1	X2	Y2	Z2	X3	Y3	Z3	X4	Y4	Z4	X5	Y5	Z5	X6	Y6	Z6	X7	Y7	Z7	X8	Y8	Z8	X9	Y9	Z9	X10	Y10	Z10	X11	Y11	Z11	X12	Y12	Z12	X13	Y13	Z13	X14	Y14	Z14	X15	Y15	Z15	X16	Y16	Z16	X17	Y17	Z17	X18	Y18	Z18	
51	0.425	51.5455	30.4585	65.8628	27.5055	27.4219	45.2868	3.5618	22.684	27.0936	-16.3511	18.9255	9.87024	56.8655	36.6528	-19.8344	51.5664	33.71	-46.5025	45.2013	32.7588	-75.7106	71.1872	5.53644	-26.7336	60.9299	-29.4608	-22.303	62.1957	-26.0631	20.4341	92.3376	-13.1515	-21.253	76.0217	-37.3827	-3.30943	82.7893	-18.8273	28.0888	105.128	-20.3555	-10.6738	93.7024	-40.7572	9.57094	93.8719	-17.1911	37.154	111.402	32.9881	17.7648	123.694	38.8327	52.101	83.4568	48.0831	44.3911	
52	0.433333	54.2133	34.3711	60.5456	28.9535	31.2263	42.7031	7.5547	27.8577	19.0349	-12.8297	25.6209	6.08186	62.9496	34.1267	-27.222	56.3513	33.091	-53.3904	58.5138	27.5292	-82.6823	75.1744	0.152508	-30.1472	60.1266	-30.0608	-21.1746	65.2711	-25.4973	19.9446	89.5594	-17.7479	-20.8939	76.9298	-38.7897	-2.96646	81.5916	-18.1024	28.6131	106.259	-23.068	-8.58687	88.4052	-40.7885	12.5938	91.1663	-19.0575	37.0029	118.15	28.8516	18.293	122.861	36.5901	55.3695	89.3187	45.2948	41.4308	
53	0.441667	58.257	36.9352	58.0504	32.5388	37.5807	39.9478	11.2499	35.3314	17.3667	-8.64622	34.5284	-2.95653	69.6027	31.5813	-26.2844	68.143	26.2952	-52.0206	68.3308	19.2397	-79.8605	75.8532	-1.53996	-28.615	60.4611	-35.3411	-15.9588	63.7701	-25.6028	21.6359	91.2581	-24.9442	-19.0443	75.8841	-42.5307	-0.151029	77.2001	-15.9965	28.6955	107.763	-30.1306	-5.49591	88.5456	-46.0584	16.2791	87.3352	-21.5459	38.3518	122.028	24.0903	20.2696	126.8	32.74	53.0343	91.9499	46.8111	38.663	
54	0.45	64.4896	37.8343	55.918	41.0369	40.4374	37.9411	17.5637	42.9652	10.6564	-0.285068	41.9978	-2.73987	75.4649	24.5832	-31.2199	72.0272	18.4136	-57.9412	72.4109	9.37756	-80.4615	74.7343	-9.95562	-27.3425	54.3943	-36.6732	-10.3668	55.3401	-23.2526	23.8166	84.4023	-29.7363	-14.4667	69.9711	-45.7877	6.13046	73.7836	-20.4886	32.1321	98.7571	-39.4454	-1.31624	78.5427	-45.482	23.3099	87.2479	-19.3321	44.8111	120.307	15.6356	17.8666	130.72	24.9323	52.8064	96.9891	43.3056	33.818	
55	0.458333	70.4574	41.2827	52.4051	47.9783	47.256	31.1976	24.7066	51.7385	9.88334	6.81918	51.1619	-10.2928	75.3381	19.0428	-30.4119	73.1817	7.30633	-54.9727	70.5658	-3.77142	-77.6827	70.0959	-15.7039	-22.8995	45.131	-35.4096	-5.83583	52.3217	-17.1413	31.066	79.4707	-36.297	-7.55035	54.3362	-40.6373	14.6148	69.7837	-19.184	39.4234	89.5269	-44.4189	5.67865	67.1769	-46.7344	32.5743	76.4404	-19.2962	47.2699	121.858	4.43381	17.7584	131.592	15.8456	52.8148	100.689	39.3455	32.3151	
56	0.466667	77.4596	44.8828	49.1954	54.5758	53.9962	28.8399	34.5305	58.1813	3.78369	15.9958	62.0913	-12.5681	75.847	10.1129	-29.5677	68.2026	1.81421	-51.3556	62.1222	-13.964	-76.8589	62.6101	-18.7687	-18.3221	35.5726	-32.7025	-0.272995	43.982	-12.5004	34.3032	65.6662	-36.1466	-1.84189	43.6071	-40.8887	23.0749	61.1336	-18.0398	44.2197	73.9725	-46.7838	12.2645	53.5041	-44.0412	39.2494	72.3708	-20.94	54.3162	118.529	-7.89877	22.7325	131.59	6.05794	51.8487	107.307	29.6283	30.6446	
57	0.475	85.0784	47.1247	47.9062	64.9134	59.1007	23.2357	43.4287	66.3188	-3.20947	28.6758	68.8687	-14.174	73.395	8.74791	-27.6902	64.1535	-5.11729	-50.418	51.8305	-21.3033	-72.3793	54.5068	-20.7689	-12.9127	23.084	-22.9013	7.70046	38.5979	-5.9017	38.9221	54.8725	-37.9979	5.15429	31.1852	-32.7441	26.8846	52.5139	-7.88783	46.411	58.2424	-49.9312	20.1658	40.5646	-34.0804	41.6822	65.1636	-13.3291	57.7036	112.069	-13.7033	24.3449	127.945	-5.32299	50.8764	110.617	21.9805	30.0246	
58	0.483333	92.2272	45.6882	43.7605	75.7445	62.1561	24.0012	57.3319	72.5185	-2.46526	39.9717	74.9391	-19.609	70.1335	4.30826	-24.4993	56.4769	-4.81907	-49.952	41.3639	-18.5033	-68.0646	47.9051	-16.3125	-9.07861	15.4503	-13.7504	13.6558	34.5563	8.46565	42.1291	42.4099	-29.2032	8.07219	22.4594	-21.7194	33.7266	45.0958	-2.1044	50.806	46.2732	-44.5255	26.2887	29.7387	-25.1318	48.3526	54.9156	-8.23506	63.124	104.213	-22.9176	30.6265	125.339	-12.0904	57.7992	112.479	16.4792	31.8023	
59	0.491667	98.6185	43.7874	43.7904	87.5023	64.1769	20.0227	67.1138	68.5317	-6.72512	53.4941	79.0446	-22.0564	66.8445	6.62544	-24.1682	51.0025	-5.11809	-43.8587	32.3304	-19.0964	-62.3783	37.3355	-10.4307	-5.73966	9.8307	0.708523	15.4041	30.1628	16.1876	44.5711	31.8	-24.5826	13.9922	13.8157	-9.001	36.872	41.0901	4.63065	55.5932	36.2502	-37.3928	31.6905	20.7422	-15.1207	52.7189	47.4858	-1.67814	63.1053	93.3436	-25.4288	30.3856	119.344	-17.6662	59.5303	112.688	9.7549	32.8402	
60	0.5	106.234	44.7454	43.4611	94.6228	57.4644	19.2686	80.3971	70.851	-9.38567	68.0645	82.7969	-28.038	62.8693	2.67224	-23.0697	44.1583	-2.64652	-45.1208	24.6241	-11.4708	-63.3598	36.5495	-3.56527	-4.14504	8.65849	14.8563	12.8198	34.7213	26.0127	47.0771	21.8958	-14.8761	18.3524	10.652	3.96388	38.395	40.884	13.8783	57.0684	26.5965	-27.9597	37.5705	19.1828	2.00286	53.1802	44.851	5.57055	68.3709	86.7268	-28.442	35.6313	111.902	-22.4996	61.5007	108.945	4.39387	30.8985	
61	0.508333	108.02	39.7072	40.0852	104.598	58.9317	17.3492	89.961	70.6595	-13.1346	77.5291	78.7292	-28.8179	62.2805	7.30339	-18.8672	39.7176	-1.3306	-40.1362	21.2919	-2.95921	-58.3469	31.5251	0.00150376	1.8024	7.65483	26.9935	16.4715	33.4135	37.9506	44.454	20.225	-3.8121	19.9554	7.85598	17.0883	37.5465	38.8281	24.19	57.9697	19.1094	-13.6496	38.7889	14.3384	10.8481	56.9504	49.6942	14.563	66.6411	77.1635	-26.7428	39.2159	103.933	-24.2777	63.8152	107.301	4.13359	32.4341	
62	0.516667	112.128	36.4925	40.1818	107.754	52.4143	15.9248	95.2968	64.552	-17.1639	88.5494	76.6115	-33.4306	57.6622	6.71166	-15.8426	38.1264	3.28556	-35.2622	17.3394	2.14438	-58.501	23.7818	7.8986	0.745452	7.8254	35.2389	16.1037	36.3216	42.9179	46.6764	16.2864	1.19533	24.7353	10.1891	31.079	40.1782	44.2505	30.0564	58.2648	13.9824	-7.86411	44.673	15.9479	23.9113	58.1606	48.6353	20.6553	64.6693	73.0214	-24.4712	43.6	98.3941	-26.6166	68.9868	101.199	0.00528644	34.7856	
63	0.525	112.529	32.8082	38.6506	110.168	46.7992	13.8401	103.132	60.0759	-17.2398	96.1062	73.0205	-38.3865	54.1543	7.37297	-15.3064	37.2832	8.68252	-40.726	12.248	5.3626	-56.0535	24.1711	12.4202	3.58254	8.33649	40.7051	15.5998	39.1425	48.1373	47.9541	13.9629	8.50916	26.8848	9.40256	36.3829	42.5259	41.5827	35.5231	57.9381	10.9297	1.43709	46.5979	14.8949	31.3284	56.0572	46.5484	27.8636	67.5487	64.933	-24.4638	43.2652	92.6795	-25.4748	71.1491	99.0849	-1.01977	35.204	
64	0.533333	115.472	27.8916	43.8138	113.934	41.2643	10.9502	109.869	55.2314	-16.2186	101.95	65.5043	-38.9509	57.2126	9.3477	-16.8966	34.91	10.084	-41.3258	12.0553	9.11514	-56.5601	26.1371	18.9498	0.822169	11.2879	47.4123	17.1222	41.1459	55.2183	43.0948	13.4387	16.1189	25.7509	13.4553	45.9993	44.3242	44.2243	41.275	55.6802	10.3216	10.241	44.6539	17.3865	40.0572	57.6135	46.284	31.9657	70.0682	58.6384	-22.7313	45.8746	86.4567	-27.3112	72.0148	96.593	-5.65321	38.9651	
65	0.541667	116.663	23.9965	40.8948	114.271	36.1543	14.2166	113.095	48.2179	-16.9742	107.415	60.234	-37.3122	56.4577	8.2565	-16.2901	32.7182	8.5241	-37.4347	14.6304	10.281	-55.0538	22.1395	21.188	1.13886	14.6767	51.6813	14.1516	43.4865	57.7844	39.9814	14.6161	23.6204	22.2486	17.2029	50.4595	37.0772	49.5532	41.7962	52.5858	9.84004	17.0132	42.428	20.0912	45.0494	57.7341	46.4698	34.3644	65.9076	58.0524	-21.6509	48.0321	84.5583	-25.5972	72.9379	92.9607	-10.6877	37.0625	
66	0.55	118.56	20.4679	39.6017	117.934	32.7673	14.4835	115.981	43.5996	-20.7886	110.159	54.944	-39.4904	54.4637	6.29014	-18.7536	40.0079	8.03977	-39.6721	15.8973	9.78314	-61.3015	28.1248	19.3526	-1.03547	18.0929	53.2828	10.4655	48.5213	54.9032	39.8597	13.5021	25.4943	20.7547	20.5214	52.4308	37.3374	50.2051	42.3873	50.6747	10.4603	17.4626	40.3604	18.9656	45.6233	51.4937	47.8483	33.3929	67.2397	53.7033	-23.102	45.4858	79.6069	-27.1078	71.7473	94.6626	-11.3174	39.1354	
67	0.558333	121.611	17.1829	38.6275	120.149	28.8267	12.3917	115.449	39.1108	-20.3336	116.122	51.2625	-40.827	57.1161	3.12884	-19.846	40.9403	5.99628	-42.812	17.9134	6.99061	-60.8812	30.3728	21.4478	-5.92885	20.6159	51.0174	7.20813	48.3504	54.3788	36.3606	17.5101	19.4738	19.6749	20.8614	49.9238	31.3285	51.4771	40.1435	48.7132	11.1883	15.9195	40.4923	26.2252	46.7639	49.3533	49.9915	33.5055	63.688	58.1152	-23.5853	46.1861	80.8121	-31.0752	74.0351	96.4659	-13.5013	34.778	
68	0.566667	122.466	16.0118	38.0536	121.774	26.9106	13.5659	124.226	38.8582	-22.2789	121.145	49.0065	-42.7981	61.266	0.0686781	-19.7622	43.3453	0.177922	-41.1031	25.1931	3.62927	-64.0727	29.1376	15.2425	-6.77558	21.9925	45.9369	4.82156	50.3076	50.4676	34.0314	17.9306	16.6058	17.6481	23.14	45.8317	27.9528	56.0275	35.7435	46.0134	14.3792	13.1921	36.3209	23.7062	40.8082	44.6442	53.758	28.9928	59.0662	62.455	-26.0425	43.6977	82.0094	-32.1453	69.4483	95.4877	-17.5309	36.121	
